<svg enable-background="new 0 0 32 32" viewBox="0 0 32 32" xmlns="http://www.w3.org/2000/svg"><path d="m22.7 8.82c.1.35.21.72.33 1.12.1.36.19.73.29 1.13.37 1.55.68 3.31.68 4.93 0 .55-.45 1-1 1s-1-.45-1-1c0-1.81-.44-3.86-.9-5.51h-.01c-.1-.38-.21-.75-.32-1.08-.12-.41-.24-.77-.34-1.07h-.01c-1.39-.22-2.88-.34-4.42-.34-.16 0-.33 0-.49.01.11.29.23.62.34.99.1.31.2.64.3 1 .46 1.62.85 3.7.85 6 0 .55-.45 1-1 1s-1-.45-1-1c0-2.3-.45-4.4-.91-5.93-.11-.36-.22-.69-.32-.98-.13-.39-.26-.71-.37-.97-1.78.16-3.45.48-4.94.93.09.29.2.6.32.95.09.3.19.62.29.95.48 1.62.93 3.54.93 5.05 0 .55-.45 1-1 1s-1-.45-1-1c0-1.25-.39-2.91-.82-4.37-.09-.33-.19-.64-.29-.94-.11-.34-.22-.66-.32-.95-3.42 1.45-5.57 3.69-5.57 6.26 0 4.49 6.59 8 15 8s15-3.51 15-8c0-3.2-3.34-5.9-8.3-7.18z"/></svg>