<svg viewBox="0 0 32 32" xmlns="http://www.w3.org/2000/svg"><path d="m15.8 13.39a1 1 0 0 0 -.85-.47h-7.95a1 1 0 0 0 -1 1v15.08a1 1 0 0 0 1 1h8a1 1 0 0 0 1-1v-15a1.37 1.37 0 0 0 -.2-.61zm-3.8 12.61h-2a1 1 0 0 1 0-2h2a1 1 0 1 1 0 2zm0-3.5h-2a1 1 0 0 1 0-2h2a1 1 0 1 1 0 2zm0-3.5h-2a1 1 0 0 1 0-2h2a1 1 0 0 1 0 2z"/><path d="m25 12.92h-8.32a2.3 2.3 0 0 1 .32 1.08v15a2 2 0 0 1 -.28 1h8.28a1 1 0 0 0 1-1v-15.08a1 1 0 0 0 -1-1z"/><path d="m15 11.92-3.13-5.42a1 1 0 0 0 -1.73 0l-3.14 5.42z"/><path d="m16.11 11.92h8.89l-3.13-5.42a1 1 0 0 0 -.87-.5h-8.26z"/><path d="m11 5h.12 9.88a2 2 0 0 1 1 .27v-2.27a1 1 0 0 0 -1-1h-10a1 1 0 0 0 -1 1v2.27a2 2 0 0 1 1-.27z"/></svg>