<svg viewBox="0 0 45.63 122.88" xmlns="http://www.w3.org/2000/svg"><path d="m13.85 13.75h17.93v5.62c.13 5.78 12.52 3.54 13.78 19.63a25.7 25.7 0 0 1 -.56 7.65c-3 1.55-2.43 8.19.13 8.81v1.48h-44.64v-1.48c2.57-.62 3.09-7.26.14-8.81a25.54 25.54 0 0 1 -.55-7.65c1.3-16 13.65-13.82 13.77-19.59zm18.84-1.69h-19.75a.86.86 0 0 1 -.86-.86v-7.9a3.26 3.26 0 0 1 .92-2.3h.05a3.28 3.28 0 0 1 2.33-1h14.87a3.26 3.26 0 0 1 2.33 1 3.3 3.3 0 0 1 1 2.33v7.9a.85.85 0 0 1 -.86.86zm12.45 47v22.4h-44.65v-22.41zm0 24.51v3.07c-3.14 1.39-2.6 7.87 0 9.25v20.4c-1.28 9.11-14.18 8.49-13.86 0a5.67 5.67 0 0 1 -1.17 3.37c-4.15 5.47-15.64 3.68-15.76-3.37.33 8.49-12.58 9.11-13.86 0v-20.41c2.61-1.38 3.14-7.88 0-9.25v-3.07zm-39.88 14.88a1.13 1.13 0 0 1 2.26 0v13.27a1.13 1.13 0 0 1 -2.26 0zm0-35.45a1.13 1.13 0 1 1 2.26 0v14.46a1.13 1.13 0 0 1 -2.26 0zm7.74-36.59a1.13 1.13 0 0 1 1.31 1.83 16.91 16.91 0 0 0 -4.54 4.68 16.31 16.31 0 0 0 -2.3 5.87 1.12 1.12 0 0 1 -2.2-.42 18.5 18.5 0 0 1 2.63-6.67 19.15 19.15 0 0 1 5.1-5.29z" fill-rule="evenodd"/></svg>