<svg enable-background="new 0 0 122.88 115.76" viewBox="0 0 122.88 115.76" xmlns="http://www.w3.org/2000/svg"><path clip-rule="evenodd" d="m63.21 28.21c6.58.51 9.65-.9 11.18-11.13-6.03 1.6-12.35 1.89-11.18 11.13zm-31.95 62.45c7.13-2.06 9.82-4.76 7.4-16.14-5.73 4.07-12.29 6.87-7.4 16.14zm-4.51-12.05c7.13-2.06 9.82-4.76 7.4-16.14-5.73 4.07-12.28 6.86-7.4 16.14zm-4.43-11.81c6.34-1.83 8.73-4.23 6.58-14.35-5.1 3.62-10.93 6.1-6.58 14.35zm-3.95-10.5c5.63-1.62 7.75-3.76 5.84-12.74-4.52 3.22-9.69 5.42-5.84 12.74zm-3.49-9.32c5.24-1.51 7.22-3.5 5.44-11.87-4.21 3-9.03 5.05-5.44 11.87zm-4.57-6.91c-6.04-1.48-8.43-5.79-5.38-14.29 3.27 1.51 10.88 6.56 5.38 14.29zm17.88 51.74c-6.73 3.13-10.53 2.85-16.18-7.33 7-.68 13.78-2.88 16.18 7.33zm-4.51-12.05c-6.73 3.13-10.53 2.85-16.18-7.33 7-.68 13.78-2.88 16.18 7.33zm-4.4-11.83c-5.99 2.78-9.36 2.54-14.38-6.51 6.22-.61 12.25-2.56 14.38 6.51zm-3.91-10.5c-5.31 2.47-8.31 2.25-12.77-5.78 5.52-.55 10.88-2.28 12.77 5.78zm-3.48-9.33c-4.95 2.3-7.74 2.09-11.89-5.39 5.14-.5 10.13-2.11 11.89 5.39zm79.73 42.87c-7.13-2.06-9.82-4.76-7.4-16.14 5.73 4.07 12.29 6.86 7.4 16.14zm4.51-12.05c-7.13-2.06-9.82-4.76-7.4-16.14 5.73 4.07 12.28 6.86 7.4 16.14zm4.43-11.81c-6.34-1.83-8.73-4.23-6.58-14.35 5.1 3.62 10.93 6.1 6.58 14.35zm3.95-10.5c-5.63-1.62-7.75-3.76-5.84-12.74 4.52 3.21 9.69 5.42 5.84 12.74zm3.49-9.32c-5.24-1.51-7.22-3.5-5.44-11.87 4.21 3 9.03 5.05 5.44 11.87zm4.57-6.91c6.04-1.48 8.43-5.79 5.38-14.29-3.27 1.5-10.88 6.56-5.38 14.29zm-17.88 51.73c6.73 3.13 10.53 2.85 16.18-7.33-7-.68-13.78-2.87-16.18 7.33zm4.51-12.05c6.73 3.13 10.53 2.85 16.18-7.33-7-.68-13.78-2.87-16.18 7.33zm4.4-11.82c5.99 2.78 9.36 2.54 14.38-6.51-6.22-.61-12.25-2.56-14.38 6.51zm3.91-10.51c5.31 2.47 8.31 2.25 12.77-5.78-5.52-.54-10.88-2.27-12.77 5.78zm3.48-9.33c4.95 2.3 7.74 2.1 11.89-5.38-5.14-.5-10.13-2.12-11.89 5.38zm-51.57 41.08c0-1.06.86-1.91 1.91-1.91 1.06 0 1.91.86 1.91 1.91v23.38c0 1.06-.86 1.91-1.91 1.91-1.06 0-1.91-.86-1.91-1.91zm-29.12 7.81c-.4-.98.08-2.09 1.05-2.49.98-.4 2.09.08 2.49 1.05.77 1.9 1.64 3.74 2.51 5.58 1.74 3.69 3.5 7.41 4.52 11.55.25 1.02-.38 2.06-1.41 2.3-1.02.25-2.06-.38-2.3-1.41-.92-3.74-2.6-7.29-4.26-10.82-.91-1.91-1.81-3.83-2.6-5.76zm58.43-1.43c.4-.98 1.51-1.45 2.49-1.05s1.45 1.51 1.05 2.49c-.78 1.93-1.69 3.85-2.6 5.78-1.72 3.64-3.45 7.31-4.35 11.2-.24 1.03-1.26 1.67-2.29 1.44-1.03-.24-1.67-1.26-1.44-2.29.99-4.3 2.81-8.16 4.62-11.98.88-1.86 1.75-3.7 2.52-5.59zm-29.42-11.26c-8.95.69-13.13-1.23-15.21-15.14 8.21 2.18 16.81 2.57 15.21 15.14zm0-15.56c-8.95.69-13.13-1.23-15.21-15.14 8.21 2.19 16.81 2.58 15.21 15.14zm.02-15.24c-7.96.62-11.68-1.09-13.53-13.46 7.3 1.94 14.95 2.28 13.53 13.46zm.02-13.56c-7.06.55-10.36-.97-12.01-11.95 6.48 1.73 13.27 2.03 12.01 11.95zm.01-12.03c-6.58.51-9.65-.9-11.18-11.13 6.03 1.6 12.36 1.89 11.18 11.13zm2.24-9.76c6.21-4.23 7.09-10.13.04-18.45-3.06 3.08-9.54 12.03-.04 18.45zm1.67 66.15c8.95.69 13.13-1.23 15.21-15.14-8.21 2.18-16.82 2.57-15.21 15.14zm0-15.56c8.95.69 13.13-1.23 15.21-15.14-8.21 2.19-16.82 2.58-15.21 15.14zm-.03-15.24c7.96.62 11.68-1.09 13.53-13.46-7.3 1.94-14.95 2.28-13.53 13.46zm-.02-13.56c7.06.55 10.36-.97 12.01-11.95-6.48 1.73-13.27 2.03-12.01 11.95z" fill-rule="evenodd"/></svg>