<svg enable-background="new 0 0 32 32" viewBox="0 0 32 32" xmlns="http://www.w3.org/2000/svg"><g style="fill:none;stroke:#000;stroke-width:2;stroke-linecap:round;stroke-linejoin:round;stroke-miterlimit:10"><path d="m19.2 6.9c-1.7.7-3.8-.7-3.8-.7s.7-2.4 2.4-3 3.8.7 3.8.7-.7 2.3-2.4 3z"/><path d="m22.1 9.1c-1.5-.3-3.1.1-4.3.9-1.1.7-2.5.7-3.5 0-1.3-.8-2.9-1.2-4.4-.9-3.7.6-6.3 4.5-5.8 8.7s4.6 11.7 8.3 11.1c.5-.1 1-.3 1.4-.6 1.3-.9 3.1-.9 4.4 0 .4.3.9.5 1.4.6 3.7.6 7.8-6.9 8.3-11.1.6-4.2-2-8.1-5.8-8.7z"/><path d="m12 3 .4.3c2.3 1.7 3.6 4.4 3.6 7.2"/></g></svg>