<svg enable-background="new 0 0 100.77 122.88" viewBox="0 0 100.77 122.88" xmlns="http://www.w3.org/2000/svg"><path clip-rule="evenodd" d="m32.19 27.99c4.78.59 9.92-.52 15.46-3.5-.55 4.13-.59 8.62-.09 13.5-2.69-.22-5.38-.77-8.07-1.59-32.03-10.06-49.75 26.77-33.15 55.95 4.97 8.73 10.99 17.72 20.33 25.89 8.88 6.36 16.7 5.49 23.93 1.55 5.75 2.73 11.83 3.81 18.36 1.36 9.61-3.61 19.39-17.86 24-26.67 10.07-19.26 13.49-43.97-8.97-56.01-6.13-3.29-13.79-4.25-23.5-2.07-2.31.79-4.61 1.29-6.92 1.53 0-.05-.01-.1-.01-.14-.81-7.45-.24-13.82 1.54-19.23 1.74-5.3 4.67-9.72 8.62-13.37 1.22-1.12 1.29-3.01.18-4.23-1.12-1.22-3.01-1.29-4.23-.18-4.7 4.34-8.18 9.6-10.26 15.92-.27.82-.52 1.66-.74 2.52-6-10.65-16.17-16.16-32.91-13.6l-6.57.69c4.81 9.99 10.74 20.18 23 21.68zm-16.16 52.81c1.19-.4 2.48.24 2.88 1.43 1.28 3.84 3.2 7.29 5.59 10.43 2.43 3.18 5.35 6.06 8.62 8.72.97.79 1.12 2.22.33 3.2-.79.97-2.22 1.12-3.2.33-3.54-2.88-6.71-6.01-9.36-9.49-2.69-3.52-4.84-7.4-6.29-11.74-.4-1.19.24-2.48 1.43-2.88z" fill-rule="evenodd"/></svg>