<svg enable-background="new 0 0 32 32" viewBox="0 0 32 32" xmlns="http://www.w3.org/2000/svg"><ellipse cx="11.5" cy="13" rx="2.5" ry="1"/><path d="m28.1 7.9c-2.9-1.2-6.7-1.9-10.8-1.9-8.7 0-15.3 3-15.3 7 0 3 2.1 5.4 5.5 6.4 1 .3 2 .4 3.1.4 1.3 0 2.7-.2 4-.7 2.1-.7 4.1-1.9 6.2-3.6 1.2-1 2.8-1.6 4.5-1.6h1.3c1.7 0 3-1.1 3.3-2.6.3-1.3-.4-2.7-1.8-3.4zm-16.6 8.1c-2.6 0-4.5-1.3-4.5-3s1.9-3 4.5-3 4.5 1.3 4.5 3-1.9 3-4.5 3z"/><path d="m26.6 16h-1.3c-1.2 0-2.4.4-3.2 1.1-2.3 1.9-4.6 3.2-6.9 4-1.5.5-3.1.8-4.6.8-1.2 0-2.5-.2-3.6-.5-2.1-.6-3.8-1.7-5-3.1v1.7c0 3 2.1 5.4 5.5 6.4 1 .3 2 .4 3.1.4 1.3 0 2.7-.2 4-.7 2.1-.7 4.1-1.9 6.2-3.6 1.2-1 2.8-1.6 4.5-1.6h1.3c1.9 0 3.1-1.3 3.4-2.7 0-.1.1-.2.1-.3v-3.2c-1 .9-2.2 1.3-3.5 1.3z"/></svg>