<svg viewBox="0 0 51.27 122.88" xmlns="http://www.w3.org/2000/svg"><path d="m12 71.86h27.24a2.33 2.33 0 0 1 2.32 2.33v37.16a2.34 2.34 0 0 1 -2.32 2.33h-27.24a2.34 2.34 0 0 1 -2.33-2.33v-37.16a2.34 2.34 0 0 1 2.33-2.33zm2.71-66.73-.05 1.58h6.59c.34 2.44 3.25 3.08 4.38 3.08s4.05-.61 4.37-3.08h6.59v-1.58zm-.27 8.25c-.62 18.3-1.62 29.08-10.7 49.77-.31.72-.61 1.44-.84 2.13a10 10 0 0 0 -.42 1.76v49a4.26 4.26 0 0 0 1.26 3 4.26 4.26 0 0 0 3 1.26h37.76a4.34 4.34 0 0 0 4.31-4.31v-49a10.58 10.58 0 0 0 -.44-1.81c-.23-.69-.53-1.41-.84-2.13-9.08-20.69-10.08-31.47-10.7-49.77zm-2.29-4.92.18-5.72a2.88 2.88 0 0 1 .76-2 2.66 2.66 0 0 1 1.78-.74h21.18a3.21 3.21 0 0 1 1.83.67 3 3 0 0 1 1 1.82v.23l.18 5.72c.65 21.07 1 31.68 10.65 53.72.34.77.66 1.56.92 2.33a11.9 11.9 0 0 1 .56 2.31v.2 49.1a6.79 6.79 0 0 1 -6.77 6.77h-37.65a6.7 6.7 0 0 1 -4.77-2 6.74 6.74 0 0 1 -2-4.78v-49.22a12.61 12.61 0 0 1 .55-2.31v-.06c.26-.77.57-1.56.91-2.33 9.68-22 10-32.64 10.66-53.71z" fill-rule="evenodd"/></svg>