<svg viewBox="0 0 128 128" xmlns="http://www.w3.org/2000/svg"><path d="m82.692 84.39a3.959 3.959 0 0 0 -.2-1.251 47.646 47.646 0 0 1 -3.161 5.188 3.992 3.992 0 0 0 3.361-3.937z"/><path d="m47.807 83.015a4.274 4.274 0 1 0 2.378 2.247 4.28 4.28 0 0 0 -2.378-2.247z"/><path d="m74.323 87.732q.478-.573.933-1.163c.062-.08.122-.162.183-.243a37.139 37.139 0 0 0 3.627-5.864l.06-.125a37.319 37.319 0 0 0 1.911-4.664q.059-.178.117-.357a37.245 37.245 0 0 0 1.211-4.85c.014-.077.029-.154.042-.232a37.01 37.01 0 0 0 .51-4.917c.005-.145.014-.29.018-.435.012-.48.013-.961.006-1.442 0-.251-.013-.5-.022-.752q-.033-.988-.119-1.988c-.037-.408-.071-.815-.121-1.222-.048-.39-.109-.78-.169-1.169-.049-.313-.1-.625-.156-.935q-.1-.528-.207-1.056c-.081-.38-.171-.757-.264-1.134-.072-.294-.14-.589-.22-.883-.179-.655-.372-1.306-.587-1.948-.049-.147-.107-.293-.158-.44-.194-.558-.4-1.113-.619-1.661-.183-.457-.369-.915-.572-1.368a37.114 37.114 0 0 0 -3.01-5.441c-.015-.022-.023-.048-.037-.071a36.939 36.939 0 0 0 -37.05-15.822 19.955 19.955 0 0 1 .759 12.311l3.471 1.571a2 2 0 1 1 -1.649 3.644l-3.211-1.449a20.09 20.09 0 0 1 -7.357 8.173 8.206 8.206 0 0 1 2.466 3.121 8.276 8.276 0 0 1 -13.157 9.475 16.947 16.947 0 0 1 -11.221 7.018 36.988 36.988 0 0 0 51.35 26.341 36.958 36.958 0 0 0 6.835-3.993c.5-.362.979-.743 1.456-1.131q.368-.3.727-.61c.266-.228.526-.463.785-.7.291-.266.585-.53.867-.8.037-.036.073-.075.11-.112.727-.714 1.418-1.459 2.079-2.226.128-.153.26-.3.383-.451zm-26.635-27.061a2 2 0 0 1 3.981.381l-.634 6.63a2 2 0 0 1 -1.988 1.81c-.064 0-.128 0-.193-.009a2 2 0 0 1 -1.8-2.181zm-12.4 15.7-5.01 4.388a2 2 0 0 1 -2.636-3.009l5.01-4.388a2 2 0 1 1 2.636 3.009zm18.727 13.587a8.275 8.275 0 1 1 -.179-6.331 8.218 8.218 0 0 1 .179 6.331zm17.826-14.558a2 2 0 0 1 -2.581 1.156l-6.223-2.373a2 2 0 1 1 1.425-3.737l6.223 2.373a2 2 0 0 1 1.156 2.581zm-.3-23.092a8.274 8.274 0 1 1 -.18-6.331 8.221 8.221 0 0 1 .178 6.329z"/><path d="m65.331 45.363a4.274 4.274 0 1 0 2.378 2.247 4.271 4.271 0 0 0 -2.378-2.247z"/><path d="m89.292 42.374a29.309 29.309 0 0 0 -7.867 1.07c.019.032.035.067.054.1q.45.783.868 1.591c.04.077.082.152.121.229.253.5.495 1 .729 1.512a7.037 7.037 0 0 1 3.59 13.558c.007.083.017.167.024.25.048.59.078 1.18.1 1.77.012.324.024.647.028.971q.01.76-.006 1.519c-.005.207-.017.413-.025.619-.012.3-.018.6-.036.9a2 2 0 0 1 2.331-.269l4.652 2.642a2 2 0 1 1 -1.976 3.479l-4.652-2.642a1.989 1.989 0 0 1 -.609-.536c-.075.587-.167 1.172-.267 1.755-.017.1-.036.2-.054.3a40.962 40.962 0 0 1 -1.34 5.357q-.061.189-.123.377c-.193.577-.392 1.152-.611 1.722a7.964 7.964 0 0 1 -5.517 13.728 7.815 7.815 0 0 1 -2.706-.49l-.041.044-.033.035q-.644.691-1.318 1.35l-.149.144q-.611.59-1.245 1.155c-.119.106-.241.211-.361.316-.213.184-.419.376-.636.555a29.305 29.305 0 1 0 17.075-53.111zm10.522 17.59 3.783-3.783a2 2 0 0 1 2.828 2.828l-3.783 3.783a2 2 0 1 1 -2.828-2.828zm-4.329 31.105a2 2 0 0 1 -2.5-1.324l-1.572-5.113a2 2 0 0 1 3.823-1.176l1.574 5.114a2 2 0 0 1 -1.325 2.499zm10.783-5.025a7.04 7.04 0 1 1 7.04-7.04 7.047 7.047 0 0 1 -7.04 7.04z"/><circle cx="106.268" cy="79.005" r="3.04"/><path d="m85.521 53.259c.084.309.155.621.232.932.109.441.215.882.308 1.324.044.207.095.412.135.62.008.04.02.079.027.12a3.049 3.049 0 0 0 -1.46-5.479c.011.034.02.068.031.1.026.076.053.152.078.228q.357 1.074.649 2.155z"/><path d="m25.034 62.3a4.229 4.229 0 0 0 3.26-.093 4.277 4.277 0 0 0 -1.553-8.18c-.2.062-.406.111-.608.166-.144.039-.286.083-.431.118-.4.1-.805.182-1.216.251a4.374 4.374 0 0 0 -.486.31c0 .54-.04 1.074-.095 1.6-.018.171-.048.339-.071.509-.048.358-.1.715-.173 1.069-.04.2-.088.391-.135.586-.077.324-.162.646-.259.965q-.091.3-.193.592c-.047.136-.083.275-.133.41a4.27 4.27 0 0 0 2.093 1.697z"/></svg>