<svg enable-background="new 0 0 32 32" viewBox="0 0 32 32" xmlns="http://www.w3.org/2000/svg"><g style="fill:none;stroke:#000;stroke-width:2;stroke-linecap:round;stroke-linejoin:round;stroke-miterlimit:10"><path d="m20.9 6.5c-.5-1.1-1.8-1.2-3.1-.4-.1-1.7-.9-3.1-1.8-3.1s-1.7 1.3-1.8 3c-1.2-.7-2.5-.5-3 .5-.1.1-.2.3-.2.4 1.1 1.9 2.9 3.1 5 3.1h.1c2 0 3.8-1.3 4.9-3.2 0-.1 0-.2-.1-.3z"/><path d="m18.1 9.5c1.1.5 1.9 1.4 2.4 2.4.3.7.5 1.5.5 2.3 0 2.9-2.2 14.8-5 14.8s-5-11.9-5-14.8c0-2.1 1.2-3.9 2.8-4.7"/><path d="m11 15h4"/><path d="m18 19h2"/><path d="m13 23h3"/></g></svg>