<svg enable-background="new 0 0 122.88 120.7" viewBox="0 0 122.88 120.7" xmlns="http://www.w3.org/2000/svg"><path clip-rule="evenodd" d="m78.36 26.79c-27.25 11.74-73.55 34.97-78.07 64.99-.73 4.82-.09 9.31 2.12 13.41 8.45 15.7 29.79 18.2 45.35 13.15 22.14-7.18 40.72-30.78 53.18-49.71 4.09-6.22 7.76-12.61 10.86-19.22 2.13 2.04 4.84 3.35 8.18 3.73.32.04.65-.01.97-.14.99-.42 1.45-1.56 1.04-2.54-.99-2.33-1.43-4.97-1.54-7.76-.12-2.88.11-5.94.44-9.01.16-1.45.53-3.03.9-4.61 1.03-4.4 2.07-8.8-.59-12.98-.52-.82-1.16-1.58-1.92-2.27-.22-.2-.45-.4-.7-.59 2.57-3.45 3.12-6.45 2.52-8.7-.47-1.74-1.58-3.03-3.04-3.79-1.38-.72-3.06-.94-4.73-.58-2.36.51-4.75 2.17-6.23 5.2-5.36-2.14-10.34 1.83-15.31 5.8-4.82 3.85-9.64 7.7-13.8 3.57-.88-.88-1.8-1.19-2.66-1.05-.05.01-.09.01-.14.02-1.61.34-2.43 2.11-2.1 4.47.22 1.53.91 3.5 2.2 5.36.8 1.15 1.81 2.27 3.07 3.25zm35.77-22.81c-1.62.35-3.3 1.79-4.11 4.6-.05.24-.16.47-.31.68-.62.88-1.83 1.09-2.71.47-3.81-2.69-8.3.9-12.79 4.48-5.51 4.4-11.01 8.79-16.84 5.02.26.67.63 1.39 1.12 2.1 2.12 3.08 6.55 5.9 14.41 4.32.36-.1.75-.1 1.13.03 1.02.34 1.58 1.44 1.24 2.46-.74 2.24-1.04 4.37-.91 6.38.1 1.57.46 3.09 1.07 4.56 1.89-.32 3.61-1.34 5.2-2.72 2.1-1.82 4.01-4.3 5.82-6.73.37-.5.97-.81 1.63-.78 1.07.04 1.91.94 1.87 2.01-.2 5.35.65 10 2.62 13.31 1.15 1.93 2.71 3.4 4.69 4.27-.42-1.8-.63-3.67-.71-5.6-.13-3.13.11-6.36.46-9.58.18-1.73.58-3.4.97-5.08.85-3.61 1.7-7.22-.07-10.01-.33-.52-.75-1.01-1.26-1.48-.53-.49-1.16-.93-1.89-1.34-.13-.07-.25-.16-.36-.26-.8-.72-.86-1.95-.14-2.74 2.75-3.03 3.46-5.34 3.07-6.82-.16-.61-.56-1.07-1.07-1.34-.59-.29-1.34-.38-2.13-.21z" fill-rule="evenodd"/></svg>